<svg xmlns="http://www.w3.org/2000/svg" xmlns:xlink="http://www.w3.org/1999/xlink" width="1129" zoomAndPan="magnify" viewBox="0 0 846.75 217.499994" height="290" preserveAspectRatio="xMidYMid meet" version="1.0"><defs><g/><clipPath id="f287f20ba6"><path d="M 2 52 L 181.929688 52 L 181.929688 191.738281 L 2 191.738281 Z M 2 52 " clip-rule="nonzero"/></clipPath></defs><g clip-path="url(#f287f20ba6)"><path fill="#00bf63" d="M 82.554688 81.523438 C 84.332031 78.0625 85.578125 75.300781 87.101562 72.707031 C 93.039062 62.597656 101.109375 55.046875 113.070312 53.097656 C 122.820312 51.503906 132.257812 53.160156 141.046875 57.8125 C 152.652344 63.957031 159.328125 73.839844 161.964844 86.472656 C 164.070312 96.546875 162.925781 106.488281 159.691406 116.207031 C 159.332031 117.300781 158.839844 118.351562 158.347656 119.585938 C 144.140625 119.585938 130.027344 119.585938 115.40625 119.585938 C 114.398438 117.714844 113.203125 115.585938 112.089844 113.417969 C 110.488281 110.308594 108.890625 107.199219 107.394531 104.039062 C 106.117188 101.351562 104.359375 99.203125 101.167969 99.40625 C 98.0625 99.609375 96.4375 101.707031 95.398438 104.597656 C 92.542969 112.546875 89.488281 120.425781 86.503906 128.328125 C 86.25 129.003906 85.945312 129.660156 85.433594 130.882812 C 84.820312 129.703125 84.296875 128.957031 84.023438 128.128906 C 80.429688 117.351562 76.871094 106.566406 73.300781 95.785156 C 73.074219 95.089844 72.910156 94.375 72.640625 93.703125 C 71.640625 91.203125 69.910156 89.472656 67.117188 89.449219 C 64.390625 89.425781 62.457031 90.859375 61.417969 93.433594 C 58.804688 99.917969 56.183594 106.402344 53.546875 112.878906 C 52.671875 115.03125 51.746094 117.164062 50.632812 119.796875 C 48.988281 119.796875 47.273438 119.792969 45.5625 119.796875 C 41.332031 119.808594 37.101562 119.695312 32.875 119.871094 C 29.511719 120.007812 27.402344 122.300781 27.328125 125.441406 C 27.253906 128.417969 29.097656 130.75 32.089844 131.359375 C 32.9375 131.53125 33.832031 131.507812 34.703125 131.511719 C 40.972656 131.519531 47.246094 131.429688 53.515625 131.546875 C 57.242188 131.617188 59.515625 129.988281 60.816406 126.554688 C 62.464844 122.210938 64.292969 117.9375 66.371094 112.816406 C 67.28125 115.398438 67.957031 117.214844 68.566406 119.054688 C 72.042969 129.566406 75.515625 140.074219 78.960938 150.59375 C 79.847656 153.289062 81.277344 155.277344 84.402344 155.453125 C 87.46875 155.621094 89.355469 154.429688 90.644531 151.089844 C 93.058594 144.839844 95.355469 138.546875 97.703125 132.273438 C 99.128906 128.460938 100.5625 124.652344 102.230469 120.195312 C 103.40625 122.492188 104.472656 124.171875 105.15625 125.996094 C 106.710938 130.128906 109.539062 131.621094 113.9375 131.585938 C 133.914062 131.429688 153.894531 131.511719 173.875 131.519531 C 175.328125 131.519531 176.808594 131.4375 178.242188 131.628906 C 180.492188 131.921875 182.074219 133.714844 182.089844 135.71875 C 182.105469 137.695312 180.539062 139.523438 178.3125 139.902344 C 177.175781 140.09375 175.988281 140.011719 174.820312 140.015625 C 166.511719 140.023438 158.199219 140.058594 149.886719 140.007812 C 148.019531 139.992188 146.648438 140.414062 145.394531 142.011719 C 132.195312 158.886719 115.613281 171.882812 97.613281 183.191406 C 93.542969 185.75 89.300781 188.03125 85.167969 190.488281 C 83.53125 191.464844 82.046875 191.597656 80.292969 190.617188 C 58.101562 178.253906 37.605469 163.746094 21.347656 143.921875 C 12.835938 133.542969 6.261719 122.09375 3.546875 108.785156 C 0.898438 95.773438 1.960938 83.148438 9.175781 71.699219 C 16.523438 60.035156 27.640625 54.238281 41.125 52.816406 C 57.855469 51.054688 69.75 58.539062 78.101562 72.546875 C 78.917969 73.921875 79.605469 75.378906 80.316406 76.8125 C 80.960938 78.097656 81.554688 79.40625 82.554688 81.523438 Z M 82.554688 81.523438 " fill-opacity="1" fill-rule="nonzero"/></g><g fill="#ffffff" fill-opacity="1"><g transform="translate(199.332987, 141.153071)"><g><path d="M 62.3125 -67.109375 L 62.3125 0 L 48.84375 0 L 48.84375 -28.5625 L 20.09375 -28.5625 L 20.09375 0 L 6.640625 0 L 6.640625 -67.109375 L 20.09375 -67.109375 L 20.09375 -39.515625 L 48.84375 -39.515625 L 48.84375 -67.109375 Z M 62.3125 -67.109375 "/></g></g></g><g fill="#ffffff" fill-opacity="1"><g transform="translate(268.267838, 141.153071)"><g><path d="M 56.15625 -27.796875 C 56.15625 -25.867188 56.023438 -24.132812 55.765625 -22.59375 L 16.828125 -22.59375 C 17.148438 -18.75 18.492188 -15.734375 20.859375 -13.546875 C 23.234375 -11.367188 26.148438 -10.28125 29.609375 -10.28125 C 34.609375 -10.28125 38.171875 -12.429688 40.296875 -16.734375 L 54.8125 -16.734375 C 53.269531 -11.597656 50.316406 -7.378906 45.953125 -4.078125 C 41.597656 -0.785156 36.25 0.859375 29.90625 0.859375 C 24.78125 0.859375 20.179688 -0.273438 16.109375 -2.546875 C 12.035156 -4.828125 8.859375 -8.050781 6.578125 -12.21875 C 4.304688 -16.382812 3.171875 -21.191406 3.171875 -26.640625 C 3.171875 -32.148438 4.289062 -36.988281 6.53125 -41.15625 C 8.78125 -45.320312 11.921875 -48.523438 15.953125 -50.765625 C 19.992188 -53.015625 24.644531 -54.140625 29.90625 -54.140625 C 34.96875 -54.140625 39.5 -53.046875 43.5 -50.859375 C 47.507812 -48.679688 50.617188 -45.585938 52.828125 -41.578125 C 55.046875 -37.578125 56.15625 -32.984375 56.15625 -27.796875 Z M 42.21875 -31.640625 C 42.144531 -35.097656 40.890625 -37.867188 38.453125 -39.953125 C 36.023438 -42.035156 33.046875 -43.078125 29.515625 -43.078125 C 26.179688 -43.078125 23.375 -42.066406 21.09375 -40.046875 C 18.820312 -38.023438 17.429688 -35.222656 16.921875 -31.640625 Z M 42.21875 -31.640625 "/></g></g></g><g fill="#ffffff" fill-opacity="1"><g transform="translate(327.588344, 141.153071)"><g><path d="M 3.171875 -26.828125 C 3.171875 -32.210938 4.242188 -36.988281 6.390625 -41.15625 C 8.535156 -45.320312 11.453125 -48.523438 15.140625 -50.765625 C 18.828125 -53.015625 22.945312 -54.140625 27.5 -54.140625 C 31.476562 -54.140625 34.957031 -53.335938 37.9375 -51.734375 C 40.914062 -50.128906 43.300781 -48.109375 45.09375 -45.671875 L 45.09375 -53.265625 L 58.65625 -53.265625 L 58.65625 0 L 45.09375 0 L 45.09375 -7.78125 C 43.363281 -5.28125 40.972656 -3.210938 37.921875 -1.578125 C 34.878906 0.046875 31.375 0.859375 27.40625 0.859375 C 22.914062 0.859375 18.828125 -0.289062 15.140625 -2.59375 C 11.453125 -4.90625 8.535156 -8.160156 6.390625 -12.359375 C 4.242188 -16.554688 3.171875 -21.378906 3.171875 -26.828125 Z M 45.09375 -26.640625 C 45.09375 -29.910156 44.453125 -32.710938 43.171875 -35.046875 C 41.890625 -37.390625 40.160156 -39.1875 37.984375 -40.4375 C 35.804688 -41.6875 33.46875 -42.3125 30.96875 -42.3125 C 28.46875 -42.3125 26.15625 -41.703125 24.03125 -40.484375 C 21.914062 -39.265625 20.203125 -37.484375 18.890625 -35.140625 C 17.578125 -32.804688 16.921875 -30.035156 16.921875 -26.828125 C 16.921875 -23.617188 17.578125 -20.8125 18.890625 -18.40625 C 20.203125 -16.007812 21.929688 -14.171875 24.078125 -12.890625 C 26.234375 -11.609375 28.53125 -10.96875 30.96875 -10.96875 C 33.46875 -10.96875 35.804688 -11.59375 37.984375 -12.84375 C 40.160156 -14.09375 41.890625 -15.882812 43.171875 -18.21875 C 44.453125 -20.5625 45.09375 -23.367188 45.09375 -26.640625 Z M 45.09375 -26.640625 "/></g></g></g><g fill="#ffffff" fill-opacity="1"><g transform="translate(392.773594, 141.153071)"><g><path d="M 20.09375 -71.15625 L 20.09375 0 L 6.640625 0 L 6.640625 -71.15625 Z M 20.09375 -71.15625 "/></g></g></g><g fill="#ffffff" fill-opacity="1"><g transform="translate(419.501474, 141.153071)"><g><path d="M 22.3125 -42.21875 L 22.3125 -16.4375 C 22.3125 -14.644531 22.742188 -13.347656 23.609375 -12.546875 C 24.472656 -11.742188 25.929688 -11.34375 27.984375 -11.34375 L 34.234375 -11.34375 L 34.234375 0 L 25.765625 0 C 14.421875 0 8.75 -5.507812 8.75 -16.53125 L 8.75 -42.21875 L 2.40625 -42.21875 L 2.40625 -53.265625 L 8.75 -53.265625 L 8.75 -66.4375 L 22.3125 -66.4375 L 22.3125 -53.265625 L 34.234375 -53.265625 L 34.234375 -42.21875 Z M 22.3125 -42.21875 "/></g></g></g><g fill="#ffffff" fill-opacity="1"><g transform="translate(456.805132, 141.153071)"><g><path d="M 36.640625 -54.046875 C 40.671875 -54.046875 44.253906 -53.160156 47.390625 -51.390625 C 50.535156 -49.628906 52.988281 -47.035156 54.75 -43.609375 C 56.519531 -40.179688 57.40625 -36.0625 57.40625 -31.25 L 57.40625 0 L 43.9375 0 L 43.9375 -29.421875 C 43.9375 -33.648438 42.878906 -36.898438 40.765625 -39.171875 C 38.648438 -41.453125 35.765625 -42.59375 32.109375 -42.59375 C 28.398438 -42.59375 25.46875 -41.453125 23.3125 -39.171875 C 21.164062 -36.898438 20.09375 -33.648438 20.09375 -29.421875 L 20.09375 0 L 6.640625 0 L 6.640625 -71.15625 L 20.09375 -71.15625 L 20.09375 -46.640625 C 21.820312 -48.941406 24.128906 -50.75 27.015625 -52.0625 C 29.898438 -53.382812 33.109375 -54.046875 36.640625 -54.046875 Z M 36.640625 -54.046875 "/></g></g></g><g fill="#ffffff" fill-opacity="1"><g transform="translate(520.355972, 141.153071)"><g/></g></g><g fill="#ffffff" fill-opacity="1"><g transform="translate(543.23811, 141.153071)"><g><path d="M 47.796875 -12.78125 L 21.0625 -12.78125 L 16.640625 0 L 2.5 0 L 26.640625 -67.21875 L 42.3125 -67.21875 L 66.4375 0 L 52.21875 0 Z M 44.140625 -23.5625 L 34.421875 -51.640625 L 24.71875 -23.5625 Z M 44.140625 -23.5625 "/></g></g></g><g fill="#ffffff" fill-opacity="1"><g transform="translate(612.076806, 141.153071)"><g><path d="M 20.09375 -71.15625 L 20.09375 0 L 6.640625 0 L 6.640625 -71.15625 Z M 20.09375 -71.15625 "/></g></g></g><g fill="#ffffff" fill-opacity="1"><g transform="translate(638.80467, 141.153071)"><g><path d="M 13.46875 -59.609375 C 11.09375 -59.609375 9.117188 -60.363281 7.546875 -61.875 C 5.972656 -63.382812 5.1875 -65.257812 5.1875 -67.5 C 5.1875 -69.75 5.972656 -71.625 7.546875 -73.125 C 9.117188 -74.632812 11.09375 -75.390625 13.46875 -75.390625 C 15.832031 -75.390625 17.800781 -74.632812 19.375 -73.125 C 20.945312 -71.625 21.734375 -69.75 21.734375 -67.5 C 21.734375 -65.257812 20.945312 -63.382812 19.375 -61.875 C 17.800781 -60.363281 15.832031 -59.609375 13.46875 -59.609375 Z M 20.09375 -53.265625 L 20.09375 0 L 6.640625 0 L 6.640625 -53.265625 Z M 20.09375 -53.265625 "/></g></g></g><g fill="#ffffff" fill-opacity="1"><g transform="translate(665.532535, 141.153071)"><g><path d="M 27.5 -54.140625 C 31.476562 -54.140625 34.972656 -53.351562 37.984375 -51.78125 C 40.992188 -50.207031 43.363281 -48.171875 45.09375 -45.671875 L 45.09375 -53.265625 L 58.65625 -53.265625 L 58.65625 0.390625 C 58.65625 5.316406 57.660156 9.71875 55.671875 13.59375 C 53.679688 17.476562 50.695312 20.554688 46.71875 22.828125 C 42.75 25.109375 37.945312 26.25 32.3125 26.25 C 24.75 26.25 18.546875 24.484375 13.703125 20.953125 C 8.859375 17.429688 6.117188 12.625 5.484375 6.53125 L 18.84375 6.53125 C 19.550781 8.96875 21.070312 10.90625 23.40625 12.34375 C 25.75 13.789062 28.585938 14.515625 31.921875 14.515625 C 35.835938 14.515625 39.007812 13.34375 41.4375 11 C 43.875 8.664062 45.09375 5.128906 45.09375 0.390625 L 45.09375 -7.890625 C 43.363281 -5.390625 40.972656 -3.304688 37.921875 -1.640625 C 34.878906 0.0234375 31.40625 0.859375 27.5 0.859375 C 23.007812 0.859375 18.90625 -0.289062 15.1875 -2.59375 C 11.46875 -4.90625 8.535156 -8.160156 6.390625 -12.359375 C 4.242188 -16.554688 3.171875 -21.378906 3.171875 -26.828125 C 3.171875 -32.210938 4.242188 -36.988281 6.390625 -41.15625 C 8.535156 -45.320312 11.453125 -48.523438 15.140625 -50.765625 C 18.828125 -53.015625 22.945312 -54.140625 27.5 -54.140625 Z M 45.09375 -26.640625 C 45.09375 -29.910156 44.453125 -32.710938 43.171875 -35.046875 C 41.890625 -37.390625 40.160156 -39.1875 37.984375 -40.4375 C 35.804688 -41.6875 33.46875 -42.3125 30.96875 -42.3125 C 28.46875 -42.3125 26.15625 -41.703125 24.03125 -40.484375 C 21.914062 -39.265625 20.203125 -37.484375 18.890625 -35.140625 C 17.578125 -32.804688 16.921875 -30.035156 16.921875 -26.828125 C 16.921875 -23.617188 17.578125 -20.8125 18.890625 -18.40625 C 20.203125 -16.007812 21.929688 -14.171875 24.078125 -12.890625 C 26.234375 -11.609375 28.53125 -10.96875 30.96875 -10.96875 C 33.46875 -10.96875 35.804688 -11.59375 37.984375 -12.84375 C 40.160156 -14.09375 41.890625 -15.882812 43.171875 -18.21875 C 44.453125 -20.5625 45.09375 -23.367188 45.09375 -26.640625 Z M 45.09375 -26.640625 "/></g></g></g><g fill="#ffffff" fill-opacity="1"><g transform="translate(730.717785, 141.153071)"><g><path d="M 36.15625 -54.046875 C 42.5 -54.046875 47.625 -52.039062 51.53125 -48.03125 C 55.445312 -44.019531 57.40625 -38.425781 57.40625 -31.25 L 57.40625 0 L 43.9375 0 L 43.9375 -29.421875 C 43.9375 -33.648438 42.878906 -36.898438 40.765625 -39.171875 C 38.648438 -41.453125 35.765625 -42.59375 32.109375 -42.59375 C 28.398438 -42.59375 25.46875 -41.453125 23.3125 -39.171875 C 21.164062 -36.898438 20.09375 -33.648438 20.09375 -29.421875 L 20.09375 0 L 6.640625 0 L 6.640625 -53.265625 L 20.09375 -53.265625 L 20.09375 -46.640625 C 21.882812 -48.941406 24.175781 -50.75 26.96875 -52.0625 C 29.757812 -53.382812 32.820312 -54.046875 36.15625 -54.046875 Z M 36.15625 -54.046875 "/></g></g></g></svg>